# xmcd
#
# Track frame offsets: 
#        150
#        13425
#        26811
#        34979
#        47429
#        66694
#        76661
#        87762
#        99049
#        114914
#        128439
#        141789
#
# Disc length: 2044 seconds
#
# Revision: 0
# Processed by: cddbd v1.5.2PL0 Copyright (c) Steve Scherf et al.
# Submitted via: ExactAudioCopy v0.99pb5
#
DISCID=9207fa0c
DTITLE=Terry Edwards - Clichés
DYEAR=1900
DGENRE=Blues
TTITLE0=Terry Edwards - Down at the Doctors
TTITLE1=Terry Edwards - Give me another chance
TTITLE2=Terry Edwards - My blue heaven
TTITLE3=Terry Edwards - Pickin' the blues
TTITLE4=Terry Edwards - The very thought of you
TTITLE5=Terry Edwards - Let's get lost
TTITLE6=Terry Edwards - I love rock and roll
TTITLE7=Terry Edwards - Prelude in C
TTITLE8=Terry Edwards - You won't see me
TTITLE9=Terry Edwards - Maybe it's because I'm a Londoner
TTITLE10=Terry Edwards - I'll go crazy
TTITLE11=Terry Edwards - Lulu's back in town
EXTD=
EXTT0=
EXTT1=
EXTT2=
EXTT3=
EXTT4=
EXTT5=
EXTT6=
EXTT7=
EXTT8=
EXTT9=
EXTT10=
EXTT11=
PLAYORDER=
